<mxfile host="app.diagrams.net" modified="2020-08-17T03:48:27.181Z" agent="5.0 (Macintosh; Intel Mac OS X 10_15_5) AppleWebKit/537.36 (KHTML, like Gecko) Chrome/84.0.4147.125 Safari/537.36" etag="nYvNheYpCgGnu1-YdM0q" version="13.6.2" type="github">
  <diagram id="R2lEEEUBdFMjLlhIrx00" name="Page-1">
    <mxGraphModel dx="946" dy="614" grid="1" gridSize="10" guides="1" tooltips="1" connect="1" arrows="1" fold="1" page="1" pageScale="1" pageWidth="850" pageHeight="1100" math="0" shadow="0" extFonts="Permanent Marker^https://fonts.googleapis.com/css?family=Permanent+Marker">
      <root>
        <mxCell id="0" />
        <mxCell id="1" parent="0" />
        <mxCell id="jaVOODTpzLVBmTV4eAVc-30" value="users" style="swimlane;fontStyle=0;childLayout=stackLayout;horizontal=1;startSize=30;horizontalStack=0;resizeParent=1;resizeParentMax=0;resizeLast=0;collapsible=1;marginBottom=0;align=center;fontSize=14;rounded=0;shadow=0;glass=0;strokeWidth=1;perimeterSpacing=0;fillColor=#cce5ff;strokeColor=#36393d;" vertex="1" parent="1">
          <mxGeometry x="160" y="40" width="160" height="210" as="geometry" />
        </mxCell>
        <mxCell id="jaVOODTpzLVBmTV4eAVc-52" value="nickname" style="rounded=0;whiteSpace=wrap;html=1;shadow=0;glass=0;" vertex="1" parent="jaVOODTpzLVBmTV4eAVc-30">
          <mxGeometry y="30" width="160" height="30" as="geometry" />
        </mxCell>
        <mxCell id="jaVOODTpzLVBmTV4eAVc-53" value="email" style="rounded=0;whiteSpace=wrap;html=1;shadow=0;glass=0;" vertex="1" parent="jaVOODTpzLVBmTV4eAVc-30">
          <mxGeometry y="60" width="160" height="30" as="geometry" />
        </mxCell>
        <mxCell id="jaVOODTpzLVBmTV4eAVc-55" value="password" style="rounded=0;whiteSpace=wrap;html=1;shadow=0;glass=0;strokeWidth=1;fillColor=#ffffff;gradientColor=none;" vertex="1" parent="jaVOODTpzLVBmTV4eAVc-30">
          <mxGeometry y="90" width="160" height="30" as="geometry" />
        </mxCell>
        <mxCell id="jaVOODTpzLVBmTV4eAVc-57" value="last_name" style="rounded=0;whiteSpace=wrap;html=1;shadow=0;glass=0;strokeWidth=1;fillColor=#ffffff;gradientColor=none;" vertex="1" parent="jaVOODTpzLVBmTV4eAVc-30">
          <mxGeometry y="120" width="160" height="30" as="geometry" />
        </mxCell>
        <mxCell id="jaVOODTpzLVBmTV4eAVc-58" value="first_name" style="rounded=0;whiteSpace=wrap;html=1;shadow=0;glass=0;strokeWidth=1;fillColor=#ffffff;gradientColor=none;" vertex="1" parent="jaVOODTpzLVBmTV4eAVc-30">
          <mxGeometry y="150" width="160" height="30" as="geometry" />
        </mxCell>
        <mxCell id="jaVOODTpzLVBmTV4eAVc-59" value="birth" style="rounded=0;whiteSpace=wrap;html=1;shadow=0;glass=0;strokeWidth=1;fillColor=#ffffff;gradientColor=none;" vertex="1" parent="jaVOODTpzLVBmTV4eAVc-30">
          <mxGeometry y="180" width="160" height="30" as="geometry" />
        </mxCell>
        <mxCell id="jaVOODTpzLVBmTV4eAVc-71" value="purchases" style="swimlane;fontStyle=0;childLayout=stackLayout;horizontal=1;startSize=30;horizontalStack=0;resizeParent=1;resizeParentMax=0;resizeLast=0;collapsible=1;marginBottom=0;align=center;fontSize=14;rounded=0;shadow=0;glass=0;strokeWidth=1;fillColor=#ffcc99;strokeColor=#36393d;" vertex="1" parent="1">
          <mxGeometry x="460" y="40" width="160" height="390" as="geometry" />
        </mxCell>
        <mxCell id="jaVOODTpzLVBmTV4eAVc-76" value="user_id" style="rounded=0;whiteSpace=wrap;html=1;shadow=0;glass=0;strokeWidth=1;fillColor=#ffffff;gradientColor=none;" vertex="1" parent="jaVOODTpzLVBmTV4eAVc-71">
          <mxGeometry y="30" width="160" height="30" as="geometry" />
        </mxCell>
        <mxCell id="jaVOODTpzLVBmTV4eAVc-89" value="sells_id" style="rounded=0;whiteSpace=wrap;html=1;shadow=0;glass=0;strokeWidth=1;fillColor=#ffffff;gradientColor=none;" vertex="1" parent="jaVOODTpzLVBmTV4eAVc-71">
          <mxGeometry y="60" width="160" height="30" as="geometry" />
        </mxCell>
        <mxCell id="jaVOODTpzLVBmTV4eAVc-75" value="card_number" style="rounded=0;whiteSpace=wrap;html=1;shadow=0;glass=0;strokeWidth=1;fillColor=#ffffff;gradientColor=none;" vertex="1" parent="jaVOODTpzLVBmTV4eAVc-71">
          <mxGeometry y="90" width="160" height="30" as="geometry" />
        </mxCell>
        <mxCell id="jaVOODTpzLVBmTV4eAVc-77" value="month" style="rounded=0;whiteSpace=wrap;html=1;shadow=0;glass=0;strokeWidth=1;fillColor=#ffffff;gradientColor=none;" vertex="1" parent="jaVOODTpzLVBmTV4eAVc-71">
          <mxGeometry y="120" width="160" height="30" as="geometry" />
        </mxCell>
        <mxCell id="jaVOODTpzLVBmTV4eAVc-78" value="year" style="rounded=0;whiteSpace=wrap;html=1;shadow=0;glass=0;strokeWidth=1;fillColor=#ffffff;gradientColor=none;" vertex="1" parent="jaVOODTpzLVBmTV4eAVc-71">
          <mxGeometry y="150" width="160" height="30" as="geometry" />
        </mxCell>
        <mxCell id="jaVOODTpzLVBmTV4eAVc-80" value="CVC" style="rounded=0;whiteSpace=wrap;html=1;shadow=0;glass=0;strokeWidth=1;fillColor=#ffffff;gradientColor=none;" vertex="1" parent="jaVOODTpzLVBmTV4eAVc-71">
          <mxGeometry y="180" width="160" height="30" as="geometry" />
        </mxCell>
        <mxCell id="jaVOODTpzLVBmTV4eAVc-79" value="post_number" style="rounded=0;whiteSpace=wrap;html=1;shadow=0;glass=0;strokeWidth=1;fillColor=#ffffff;gradientColor=none;" vertex="1" parent="jaVOODTpzLVBmTV4eAVc-71">
          <mxGeometry y="210" width="160" height="30" as="geometry" />
        </mxCell>
        <mxCell id="jaVOODTpzLVBmTV4eAVc-82" value="prefecture" style="rounded=0;whiteSpace=wrap;html=1;shadow=0;glass=0;strokeWidth=1;fillColor=#ffffff;gradientColor=none;" vertex="1" parent="jaVOODTpzLVBmTV4eAVc-71">
          <mxGeometry y="240" width="160" height="30" as="geometry" />
        </mxCell>
        <mxCell id="jaVOODTpzLVBmTV4eAVc-83" value="cities" style="rounded=0;whiteSpace=wrap;html=1;shadow=0;glass=0;strokeWidth=1;fillColor=#ffffff;gradientColor=none;" vertex="1" parent="jaVOODTpzLVBmTV4eAVc-71">
          <mxGeometry y="270" width="160" height="30" as="geometry" />
        </mxCell>
        <mxCell id="jaVOODTpzLVBmTV4eAVc-84" value="house_number" style="rounded=0;whiteSpace=wrap;html=1;shadow=0;glass=0;strokeWidth=1;fillColor=#ffffff;gradientColor=none;" vertex="1" parent="jaVOODTpzLVBmTV4eAVc-71">
          <mxGeometry y="300" width="160" height="30" as="geometry" />
        </mxCell>
        <mxCell id="jaVOODTpzLVBmTV4eAVc-85" value="building" style="rounded=0;whiteSpace=wrap;html=1;shadow=0;glass=0;strokeWidth=1;fillColor=#ffffff;gradientColor=none;" vertex="1" parent="jaVOODTpzLVBmTV4eAVc-71">
          <mxGeometry y="330" width="160" height="30" as="geometry" />
        </mxCell>
        <mxCell id="jaVOODTpzLVBmTV4eAVc-86" value="telephone_number" style="rounded=0;whiteSpace=wrap;html=1;shadow=0;glass=0;strokeWidth=1;fillColor=#ffffff;gradientColor=none;" vertex="1" parent="jaVOODTpzLVBmTV4eAVc-71">
          <mxGeometry y="360" width="160" height="30" as="geometry" />
        </mxCell>
        <mxCell id="jaVOODTpzLVBmTV4eAVc-81" value="" style="rounded=0;whiteSpace=wrap;html=1;shadow=0;glass=0;strokeWidth=1;fillColor=#ffffff;gradientColor=none;" vertex="1" parent="jaVOODTpzLVBmTV4eAVc-71">
          <mxGeometry y="390" width="160" as="geometry" />
        </mxCell>
        <mxCell id="jaVOODTpzLVBmTV4eAVc-39" value="sells" style="swimlane;fontStyle=0;childLayout=stackLayout;horizontal=1;startSize=30;horizontalStack=0;resizeParent=1;resizeParentMax=0;resizeLast=0;collapsible=1;marginBottom=0;align=center;fontSize=14;rounded=0;shadow=0;glass=0;fillColor=#cdeb8b;strokeColor=#36393d;" vertex="1" parent="1">
          <mxGeometry x="160" y="360" width="160" height="300" as="geometry">
            <mxRectangle x="430" y="400" width="50" height="26" as="alternateBounds" />
          </mxGeometry>
        </mxCell>
        <mxCell id="jaVOODTpzLVBmTV4eAVc-63" value="user_id" style="rounded=0;whiteSpace=wrap;html=1;shadow=0;glass=0;strokeWidth=1;fillColor=#ffffff;gradientColor=none;" vertex="1" parent="jaVOODTpzLVBmTV4eAVc-39">
          <mxGeometry y="30" width="160" height="30" as="geometry" />
        </mxCell>
        <mxCell id="jaVOODTpzLVBmTV4eAVc-67" value="product" style="rounded=0;whiteSpace=wrap;html=1;shadow=0;glass=0;strokeWidth=1;fillColor=#ffffff;gradientColor=none;" vertex="1" parent="jaVOODTpzLVBmTV4eAVc-39">
          <mxGeometry y="60" width="160" height="30" as="geometry" />
        </mxCell>
        <mxCell id="jaVOODTpzLVBmTV4eAVc-68" value="price" style="rounded=0;whiteSpace=wrap;html=1;shadow=0;glass=0;strokeWidth=1;fillColor=#ffffff;gradientColor=none;" vertex="1" parent="jaVOODTpzLVBmTV4eAVc-39">
          <mxGeometry y="90" width="160" height="30" as="geometry" />
        </mxCell>
        <mxCell id="jaVOODTpzLVBmTV4eAVc-69" value="content" style="rounded=0;whiteSpace=wrap;html=1;shadow=0;glass=0;strokeWidth=1;fillColor=#ffffff;gradientColor=none;" vertex="1" parent="jaVOODTpzLVBmTV4eAVc-39">
          <mxGeometry y="120" width="160" height="30" as="geometry" />
        </mxCell>
        <mxCell id="jaVOODTpzLVBmTV4eAVc-103" value="category" style="rounded=0;whiteSpace=wrap;html=1;shadow=0;glass=0;strokeWidth=1;fillColor=#ffffff;gradientColor=none;" vertex="1" parent="jaVOODTpzLVBmTV4eAVc-39">
          <mxGeometry y="150" width="160" height="30" as="geometry" />
        </mxCell>
        <mxCell id="jaVOODTpzLVBmTV4eAVc-104" value="product_state" style="rounded=0;whiteSpace=wrap;html=1;shadow=0;glass=0;strokeWidth=1;fillColor=#ffffff;gradientColor=none;" vertex="1" parent="jaVOODTpzLVBmTV4eAVc-39">
          <mxGeometry y="180" width="160" height="30" as="geometry" />
        </mxCell>
        <mxCell id="jaVOODTpzLVBmTV4eAVc-105" value="delivery_fee" style="rounded=0;whiteSpace=wrap;html=1;shadow=0;glass=0;strokeWidth=1;fillColor=#ffffff;gradientColor=none;" vertex="1" parent="jaVOODTpzLVBmTV4eAVc-39">
          <mxGeometry y="210" width="160" height="30" as="geometry" />
        </mxCell>
        <mxCell id="jaVOODTpzLVBmTV4eAVc-106" value="shipper_area" style="rounded=0;whiteSpace=wrap;html=1;shadow=0;glass=0;strokeWidth=1;fillColor=#ffffff;gradientColor=none;" vertex="1" parent="jaVOODTpzLVBmTV4eAVc-39">
          <mxGeometry y="240" width="160" height="30" as="geometry" />
        </mxCell>
        <mxCell id="jaVOODTpzLVBmTV4eAVc-107" value="ship_days" style="rounded=0;whiteSpace=wrap;html=1;shadow=0;glass=0;strokeWidth=1;fillColor=#ffffff;gradientColor=none;" vertex="1" parent="jaVOODTpzLVBmTV4eAVc-39">
          <mxGeometry y="270" width="160" height="30" as="geometry" />
        </mxCell>
        <mxCell id="jaVOODTpzLVBmTV4eAVc-70" value="" style="rounded=0;whiteSpace=wrap;html=1;shadow=0;glass=0;strokeWidth=1;fillColor=#ffffff;gradientColor=none;" vertex="1" parent="jaVOODTpzLVBmTV4eAVc-39">
          <mxGeometry y="300" width="160" as="geometry" />
        </mxCell>
        <mxCell id="jaVOODTpzLVBmTV4eAVc-99" value="" style="edgeStyle=entityRelationEdgeStyle;fontSize=12;html=1;endArrow=ERzeroToMany;startArrow=ERmandOne;entryX=0;entryY=0.25;entryDx=0;entryDy=0;exitX=1;exitY=0.25;exitDx=0;exitDy=0;" edge="1" parent="1" source="jaVOODTpzLVBmTV4eAVc-55" target="jaVOODTpzLVBmTV4eAVc-75">
          <mxGeometry width="100" height="100" relative="1" as="geometry">
            <mxPoint x="320" y="140" as="sourcePoint" />
            <mxPoint x="420" y="40" as="targetPoint" />
          </mxGeometry>
        </mxCell>
        <mxCell id="jaVOODTpzLVBmTV4eAVc-100" value="" style="fontSize=12;html=1;endArrow=ERzeroToMany;startArrow=ERmandOne;exitX=0;exitY=0;exitDx=0;exitDy=0;" edge="1" parent="1" source="jaVOODTpzLVBmTV4eAVc-55">
          <mxGeometry width="100" height="100" relative="1" as="geometry">
            <mxPoint x="80" y="120" as="sourcePoint" />
            <mxPoint x="160" y="458" as="targetPoint" />
            <Array as="points">
              <mxPoint x="120" y="130" />
              <mxPoint x="120" y="458" />
            </Array>
          </mxGeometry>
        </mxCell>
        <mxCell id="jaVOODTpzLVBmTV4eAVc-101" value="" style="edgeStyle=entityRelationEdgeStyle;fontSize=12;html=1;endArrow=ERzeroToOne;startArrow=ERmandOne;entryX=0;entryY=0.5;entryDx=0;entryDy=0;" edge="1" parent="1" target="jaVOODTpzLVBmTV4eAVc-85">
          <mxGeometry width="100" height="100" relative="1" as="geometry">
            <mxPoint x="322" y="385" as="sourcePoint" />
            <mxPoint x="420" y="310" as="targetPoint" />
          </mxGeometry>
        </mxCell>
      </root>
    </mxGraphModel>
  </diagram>
</mxfile>
